<svg xmlns="http://www.w3.org/2000/svg" viewBox="0 0 96 96">
  <path d="M52 84V21.656l21.457 21.456c1.56 1.562 4.095 1.562 5.656 0 1.562-1.56 1.562-4.095 0-5.657L50.83 9.172c-.187-.186-.392-.352-.61-.498-.1-.067-.21-.114-.315-.172-.124-.066-.242-.142-.373-.195-.135-.057-.275-.09-.415-.13-.11-.032-.216-.075-.33-.098-.26-.053-.523-.08-.786-.08h-.008c-.26.002-.52.028-.774.08-.12.023-.23.068-.35.103-.132.04-.267.07-.396.123-.14.058-.265.136-.396.208-.098.054-.198.097-.292.16-.22.145-.427.313-.614.5L16.89 37.456c-1.563 1.562-1.563 4.095-.002 5.657 1.562 1.562 4.094 1.562 5.658 0L44 21.657V84c0 2.21 1.79 4 4 4s4-1.79 4-4z"/>
</svg>
