<?xml version="1.0" encoding="utf-8"?>
<!-- Generator: Adobe Illustrator 16.0.0, SVG Export Plug-In . SVG Version: 6.00 Build 0)  -->
<!DOCTYPE svg PUBLIC "-//W3C//DTD SVG 1.1//EN" "http://www.w3.org/Graphics/SVG/1.1/DTD/svg11.dtd">
<svg version="1.1" id="Layer_1" xmlns="http://www.w3.org/2000/svg" xmlns:xlink="http://www.w3.org/1999/xlink" x="0px" y="0px"
	 width="150px" height="150px" viewBox="0 0 150 150" enable-background="new 0 0 150 150" xml:space="preserve">
<rect fill="#3A66A6" width="150" height="150"/>
<path fill="#FFFFFF" d="M26.938,62.486v3.655h-2.023c0,0-1.828-0.261-1.828,1.501v2.872h3.852l-0.457,3.968h-3.395v11.112h-4.438
	V74.432h-3.003v-3.917h3.133v-3.329c0,0-0.392-1.828,1.24-3.329c1.632-1.501,3.786-1.371,3.786-1.371H26.938z"/>
<path fill="#FFFFFF" d="M37.641,70.581v1.992c-1.133-1.491-2.716-2.417-4.469-2.417c-3.443,0-6.234,3.036-6.234,7.98
	c0,4.912,2.792,7.98,6.234,7.98c1.769,0,3.366-0.944,4.501-2.459l-0.03,1.937h4.276V70.581H37.641z M37.401,79.621
	c0,1.515-1.287,2.938-2.875,2.938c-1.587,0-2.875-1.424-2.875-2.938v-2.872c0-1.514,1.287-2.937,2.875-2.937
	c1.588,0,2.875,1.423,2.875,2.937V79.621z"/>
<path fill="#FFFFFF" d="M76.846,85.692V83.7c1.132,1.49,2.716,2.417,4.469,2.417c3.442,0,6.233-3.036,6.233-7.98
	c0-4.912-2.791-7.98-6.233-7.98c-1.77,0-3.366,0.943-4.502,2.458l0.029-9.915l-4.446,0.5v22.424L76.846,85.692z M77.084,76.651
	c0-1.514,1.287-2.938,2.875-2.938s2.875,1.423,2.875,2.938v2.872c0,1.515-1.287,2.938-2.875,2.938s-2.875-1.423-2.875-2.938V76.651z
	"/>
<path fill="#FFFFFF" d="M51.58,82.476c0,0-3.427,0.196-3.427-4.243v-0.243c0-4.438,3.427-4.243,3.427-4.243
	c2.317-0.033,3.133,0.783,3.133,0.783l1.077-3.231c-1.861-1.371-7.475-1.6-9.988,0.718c-2.174,2.005-2.174,5.255-2.134,6.094
	c-0.04,0.84-0.04,4.09,2.134,6.095c2.513,2.317,8.127,2.089,9.988,0.719l-1.077-3.231C54.713,81.692,53.897,82.508,51.58,82.476"/>
<path fill="#FFFFFF" d="M70.543,79.72c0,0,1.795-9.4-6.789-9.451c-8.584-0.051-7.344,8.504-7.344,8.504
	c0.196,5.189,2.578,6.691,6.658,7.182c4.08,0.489,7.181-1.078,7.181-1.078l-0.947-3.035c0,0-3.296,1.012-5.907,0.783
	c-2.611-0.228-2.416-2.904-2.416-2.904H70.543z M60.915,76.684c0,0-0.229-3.329,2.774-3.329s2.774,3.329,2.774,3.329H60.915z"/>
<path fill="#FFFFFF" d="M96.394,70.361c-5.589,0-7.469,3.372-7.469,7.878c0,4.78,2.423,7.878,7.469,7.878
	c4.124,0,7.469-2.771,7.469-7.878C103.862,73.888,101.728,70.361,96.394,70.361 M99.305,79.542c0,1.515-1.32,2.938-2.95,2.938
	c-1.629,0-2.949-1.423-2.949-2.938V76.67c0-1.514,1.32-2.938,2.949-2.938c1.63,0,2.95,1.423,2.95,2.938V79.542z"/>
<path fill="#FFFFFF" d="M112.886,70.361c-5.588,0-7.469,3.372-7.469,7.878c0,4.78,2.424,7.878,7.469,7.878
	c4.125,0,7.469-2.771,7.469-7.878C120.354,73.888,118.221,70.361,112.886,70.361 M115.797,79.542c0,1.515-1.32,2.938-2.949,2.938
	s-2.95-1.423-2.95-2.938V76.67c0-1.514,1.321-2.938,2.95-2.938s2.949,1.423,2.949,2.938V79.542z"/>
<polygon fill="#FFFFFF" points="136.015,85.66 131.132,78.102 135.798,70.542 131.023,70.542 126.467,77.309 126.467,62.621 
	121.981,63.091 121.981,85.66 126.467,85.66 126.467,77.97 131.386,85.66 "/>
</svg>
