<?xml version="1.0" encoding="utf-8"?>
<!-- Generator: Adobe Illustrator 16.0.0, SVG Export Plug-In . SVG Version: 6.00 Build 0)  -->
<!DOCTYPE svg PUBLIC "-//W3C//DTD SVG 1.1//EN" "http://www.w3.org/Graphics/SVG/1.1/DTD/svg11.dtd">
<svg version="1.1" id="Layer_1" xmlns="http://www.w3.org/2000/svg" xmlns:xlink="http://www.w3.org/1999/xlink" x="0px" y="0px"
	 width="225px" height="45px" viewBox="0 0 225 45" enable-background="new 0 0 225 45" xml:space="preserve">
<rect fill="#3B66A6" width="225" height="45"/>
<path fill="#FFFFFF" d="M48.911,6.172v4.872h-2.697c0,0-2.437-0.348-2.437,2v3.828h5.133l-0.609,5.288h-4.524v14.808h-5.915V22.092
	H33.86v-5.219h4.176v-4.437c0,0-0.522-2.436,1.653-4.437s5.045-1.827,5.045-1.827H48.911z"/>
<path fill="#FFFFFF" d="M63.174,16.959v2.655c-1.51-1.986-3.62-3.221-5.956-3.221c-4.588,0-8.308,4.046-8.308,10.635
	c0,6.547,3.72,10.636,8.308,10.636c2.357,0,4.486-1.257,5.998-3.276l-0.039,2.58h5.698V16.959H63.174z M62.856,29.008
	c0,2.019-1.716,3.915-3.831,3.915c-2.116,0-3.832-1.896-3.832-3.915v-3.827c0-2.018,1.715-3.915,3.832-3.915
	c2.115,0,3.831,1.897,3.831,3.915V29.008z"/>
<path fill="#FFFFFF" d="M115.422,37.099v-2.654c1.51,1.986,3.619,3.22,5.955,3.22c4.588,0,8.309-4.046,8.309-10.636
	c0-6.545-3.721-10.635-8.309-10.635c-2.357,0-4.486,1.258-5.998,3.277l0.039-13.214l-5.926,0.667v29.884L115.422,37.099z
	 M115.74,25.05c0-2.018,1.715-3.915,3.83-3.915c2.117,0,3.832,1.897,3.832,3.915v3.828c0,2.018-1.715,3.914-3.832,3.914
	c-2.115,0-3.83-1.896-3.83-3.914V25.05z"/>
<path fill="#FFFFFF" d="M81.75,32.812c0,0-4.567,0.262-4.567-5.654v-0.324c0-5.916,4.567-5.654,4.567-5.654
	c3.089-0.044,4.176,1.044,4.176,1.044l1.436-4.306c-2.479-1.827-9.961-2.131-13.311,0.957c-2.897,2.672-2.896,7.003-2.845,8.122
	c-0.052,1.119-0.053,5.449,2.845,8.121c3.35,3.089,10.831,2.784,13.311,0.957l-1.436-4.306
	C85.926,31.768,84.839,32.854,81.75,32.812"/>
<path fill="#FFFFFF" d="M107.023,29.139c0,0,2.393-12.527-9.048-12.595c-11.439-0.068-9.787,11.334-9.787,11.334
	c0.262,6.915,3.437,8.916,8.874,9.568c5.437,0.652,9.569-1.436,9.569-1.436l-1.262-4.045c0,0-4.393,1.349-7.873,1.044
	c-3.479-0.304-3.219-3.871-3.219-3.871H107.023z M94.191,25.093c0,0-0.305-4.436,3.697-4.436s3.697,4.436,3.697,4.436H94.191z"/>
<path fill="#FFFFFF" d="M141.473,16.667c-7.447,0-9.953,4.493-9.953,10.498c0,6.372,3.229,10.499,9.953,10.499
	c5.498,0,9.953-3.693,9.953-10.499C151.426,21.367,148.582,16.667,141.473,16.667 M145.354,28.902c0,2.019-1.76,3.915-3.932,3.915
	s-3.932-1.896-3.932-3.915v-3.827c0-2.019,1.76-3.915,3.932-3.915s3.932,1.896,3.932,3.915V28.902z"/>
<path fill="#FFFFFF" d="M163.451,16.667c-7.447,0-9.953,4.493-9.953,10.498c0,6.372,3.23,10.499,9.953,10.499
	c5.498,0,9.953-3.693,9.953-10.499C173.404,21.367,170.561,16.667,163.451,16.667 M167.332,28.902c0,2.019-1.76,3.915-3.932,3.915
	c-2.17,0-3.93-1.896-3.93-3.915v-3.827c0-2.019,1.76-3.915,3.93-3.915c2.172,0,3.932,1.896,3.932,3.915V28.902z"/>
<polygon fill="#FFFFFF" points="194.275,37.056 187.77,26.981 193.986,16.908 187.623,16.908 181.551,25.925 181.551,6.352 
	175.574,6.979 175.574,37.056 181.551,37.056 181.551,26.808 188.105,37.056 "/>
</svg>
