<svg xmlns="http://www.w3.org/2000/svg" viewBox="0 0 167.43 28.92"><path d="M167.43,28.92c-8.51,0-12.83-2.6-17-5.12s-8.25-5-16.48-5-12.24,2.42-16.49,5-8.49,5.12-17,5.12-12.83-2.6-17-5.12-8.25-5-16.48-5-12.24,2.42-16.48,5-8.49,5.12-17,5.12-12.83-2.6-17-5.12-8.25-5-16.48-5v-1c8.51,0,12.83,2.6,17,5.12s8.25,5,16.48,5,12.24-2.42,16.48-5,8.49-5.12,17-5.12,12.83,2.6,17,5.12,8.25,5,16.48,5,12.24-2.42,16.48-5,8.49-5.12,17-5.12,12.83,2.6,17,5.12,8.25,5,16.49,5v1Zm0-9.16c-8.51,0-12.83-2.6-17-5.12s-8.25-5-16.48-5-12.24,2.42-16.49,5-8.49,5.12-17,5.12-12.83-2.6-17-5.12-8.25-5-16.48-5-12.24,2.42-16.48,5-8.49,5.12-17,5.12-12.83-2.6-17-5.12-8.25-5-16.48-5v-1c8.51,0,12.83,2.6,17,5.12s8.25,5,16.48,5,12.24-2.42,16.48-5,8.49-5.12,17-5.12,12.83,2.6,17,5.12,8.25,5,16.48,5,12.24-2.42,16.48-5,8.49-5.12,17-5.12,12.83,2.6,17,5.12,8.25,5,16.49,5v1Zm0-8.65c-8.51,0-12.83-2.6-17-5.12s-8.25-5-16.48-5S121.7,3.42,117.45,6s-8.49,5.12-17,5.12S87.63,8.5,83.45,6,75.2,1,67,1,54.73,3.42,50.48,6,42,11.1,33.48,11.1,20.66,8.5,16.48,6,8.23,1,0,1V0C8.51,0,12.83,2.6,17,5.12s8.25,5,16.48,5S45.72,7.68,50,5.12,58.46,0,67,0,79.79,2.6,84,5.12s8.25,5,16.48,5,12.24-2.42,16.48-5S125.43,0,133.94,0s12.83,2.6,17,5.12,8.25,5,16.49,5v1Z"/></svg>
